<mxfile host="app.diagrams.net" agent="Mozilla/5.0 (Windows NT 10.0; Win64; x64; rv:141.0) Gecko/20100101 Firefox/141.0" version="28.0.7">
  <diagram name="Page-1" id="ZwclgwCDB8QirTYUi6D6">
    <mxGraphModel dx="1426" dy="779" grid="1" gridSize="10" guides="1" tooltips="1" connect="1" arrows="1" fold="1" page="1" pageScale="1" pageWidth="850" pageHeight="1100" math="0" shadow="0">
      <root>
        <mxCell id="0" />
        <mxCell id="1" parent="0" />
        <mxCell id="0gY_LsnsYeZO3KPKOBL2-7" style="edgeStyle=entityRelationEdgeStyle;rounded=1;orthogonalLoop=1;jettySize=auto;html=1;exitX=1;exitY=0.5;exitDx=0;exitDy=0;entryX=0;entryY=0.75;entryDx=0;entryDy=0;curved=0;" edge="1" parent="1" source="0gY_LsnsYeZO3KPKOBL2-1" target="0gY_LsnsYeZO3KPKOBL2-5">
          <mxGeometry relative="1" as="geometry" />
        </mxCell>
        <mxCell id="0gY_LsnsYeZO3KPKOBL2-1" value="1640 Riverside Drive" style="rounded=1;whiteSpace=wrap;html=1;fillColor=#dae8fc;strokeColor=#6c8ebf;" vertex="1" parent="1">
          <mxGeometry x="80" y="120" width="110" height="40" as="geometry" />
        </mxCell>
        <mxCell id="0gY_LsnsYeZO3KPKOBL2-2" value="Password / key" style="text;html=1;align=center;verticalAlign=middle;whiteSpace=wrap;rounded=0;" vertex="1" parent="1">
          <mxGeometry x="97.5" y="80" width="75" height="30" as="geometry" />
        </mxCell>
        <mxCell id="0gY_LsnsYeZO3KPKOBL2-6" style="edgeStyle=entityRelationEdgeStyle;rounded=1;orthogonalLoop=1;jettySize=auto;html=1;exitX=1;exitY=0.5;exitDx=0;exitDy=0;entryX=0;entryY=0.25;entryDx=0;entryDy=0;curved=0;" edge="1" parent="1" source="0gY_LsnsYeZO3KPKOBL2-3" target="0gY_LsnsYeZO3KPKOBL2-5">
          <mxGeometry relative="1" as="geometry" />
        </mxCell>
        <mxCell id="0gY_LsnsYeZO3KPKOBL2-3" value="querty123" style="rounded=1;whiteSpace=wrap;html=1;fillColor=#d5e8d4;strokeColor=#82b366;" vertex="1" parent="1">
          <mxGeometry x="80" y="40" width="110" height="40" as="geometry" />
        </mxCell>
        <mxCell id="0gY_LsnsYeZO3KPKOBL2-4" value="Secret data" style="text;html=1;align=center;verticalAlign=middle;whiteSpace=wrap;rounded=0;" vertex="1" parent="1">
          <mxGeometry x="100" y="160" width="75" height="30" as="geometry" />
        </mxCell>
        <mxCell id="0gY_LsnsYeZO3KPKOBL2-11" style="edgeStyle=orthogonalEdgeStyle;rounded=0;orthogonalLoop=1;jettySize=auto;html=1;exitX=1;exitY=0.5;exitDx=0;exitDy=0;entryX=0;entryY=0.5;entryDx=0;entryDy=0;" edge="1" parent="1" source="0gY_LsnsYeZO3KPKOBL2-5" target="0gY_LsnsYeZO3KPKOBL2-8">
          <mxGeometry relative="1" as="geometry" />
        </mxCell>
        <mxCell id="0gY_LsnsYeZO3KPKOBL2-5" value="Encryption" style="shape=process;whiteSpace=wrap;html=1;backgroundOutline=1;fillColor=#f5f5f5;fontColor=#333333;strokeColor=#666666;" vertex="1" parent="1">
          <mxGeometry x="260" y="70" width="120" height="60" as="geometry" />
        </mxCell>
        <mxCell id="0gY_LsnsYeZO3KPKOBL2-22" style="edgeStyle=orthogonalEdgeStyle;rounded=1;orthogonalLoop=1;jettySize=auto;html=1;exitX=1;exitY=0.5;exitDx=0;exitDy=0;entryX=0;entryY=0.5;entryDx=0;entryDy=0;dashed=1;curved=0;" edge="1" parent="1" source="0gY_LsnsYeZO3KPKOBL2-8" target="0gY_LsnsYeZO3KPKOBL2-20">
          <mxGeometry relative="1" as="geometry">
            <mxPoint x="40" y="310" as="targetPoint" />
            <Array as="points">
              <mxPoint x="573" y="100" />
              <mxPoint x="573" y="200" />
              <mxPoint x="60" y="200" />
              <mxPoint x="60" y="340" />
            </Array>
          </mxGeometry>
        </mxCell>
        <mxCell id="0gY_LsnsYeZO3KPKOBL2-8" value="34658328" style="rounded=1;whiteSpace=wrap;html=1;fillColor=#f8cecc;strokeColor=#b85450;" vertex="1" parent="1">
          <mxGeometry x="442.5" y="80" width="110" height="40" as="geometry" />
        </mxCell>
        <mxCell id="0gY_LsnsYeZO3KPKOBL2-9" value="Ciphertext" style="text;html=1;align=center;verticalAlign=middle;whiteSpace=wrap;rounded=0;" vertex="1" parent="1">
          <mxGeometry x="460" y="120" width="75" height="30" as="geometry" />
        </mxCell>
        <mxCell id="0gY_LsnsYeZO3KPKOBL2-12" style="edgeStyle=entityRelationEdgeStyle;rounded=1;orthogonalLoop=1;jettySize=auto;html=1;entryX=0;entryY=0.75;entryDx=0;entryDy=0;curved=0;exitX=1;exitY=0.5;exitDx=0;exitDy=0;" edge="1" source="0gY_LsnsYeZO3KPKOBL2-20" target="0gY_LsnsYeZO3KPKOBL2-19" parent="1">
          <mxGeometry relative="1" as="geometry">
            <mxPoint x="200" y="340" as="sourcePoint" />
          </mxGeometry>
        </mxCell>
        <mxCell id="0gY_LsnsYeZO3KPKOBL2-13" value="1640 Riverside Drive" style="rounded=1;whiteSpace=wrap;html=1;fillColor=#dae8fc;strokeColor=#6c8ebf;" vertex="1" parent="1">
          <mxGeometry x="440" y="280" width="110" height="40" as="geometry" />
        </mxCell>
        <mxCell id="0gY_LsnsYeZO3KPKOBL2-14" value="Password / key" style="text;html=1;align=center;verticalAlign=middle;whiteSpace=wrap;rounded=0;" vertex="1" parent="1">
          <mxGeometry x="97.5" y="280" width="75" height="30" as="geometry" />
        </mxCell>
        <mxCell id="0gY_LsnsYeZO3KPKOBL2-15" style="edgeStyle=entityRelationEdgeStyle;rounded=1;orthogonalLoop=1;jettySize=auto;html=1;exitX=1;exitY=0.5;exitDx=0;exitDy=0;entryX=0;entryY=0.25;entryDx=0;entryDy=0;curved=0;" edge="1" source="0gY_LsnsYeZO3KPKOBL2-16" target="0gY_LsnsYeZO3KPKOBL2-19" parent="1">
          <mxGeometry relative="1" as="geometry" />
        </mxCell>
        <mxCell id="0gY_LsnsYeZO3KPKOBL2-16" value="querty123" style="rounded=1;whiteSpace=wrap;html=1;fillColor=#d5e8d4;strokeColor=#82b366;" vertex="1" parent="1">
          <mxGeometry x="80" y="240" width="110" height="40" as="geometry" />
        </mxCell>
        <mxCell id="0gY_LsnsYeZO3KPKOBL2-17" value="Secret data" style="text;html=1;align=center;verticalAlign=middle;whiteSpace=wrap;rounded=0;" vertex="1" parent="1">
          <mxGeometry x="460" y="320" width="75" height="30" as="geometry" />
        </mxCell>
        <mxCell id="0gY_LsnsYeZO3KPKOBL2-18" style="edgeStyle=orthogonalEdgeStyle;rounded=0;orthogonalLoop=1;jettySize=auto;html=1;exitX=1;exitY=0.5;exitDx=0;exitDy=0;entryX=0;entryY=0.5;entryDx=0;entryDy=0;" edge="1" source="0gY_LsnsYeZO3KPKOBL2-19" target="0gY_LsnsYeZO3KPKOBL2-13" parent="1">
          <mxGeometry relative="1" as="geometry">
            <mxPoint x="430" y="300" as="targetPoint" />
          </mxGeometry>
        </mxCell>
        <mxCell id="0gY_LsnsYeZO3KPKOBL2-19" value="Decryption" style="shape=process;whiteSpace=wrap;html=1;backgroundOutline=1;fillColor=#f5f5f5;fontColor=#333333;strokeColor=#666666;" vertex="1" parent="1">
          <mxGeometry x="260" y="270" width="120" height="60" as="geometry" />
        </mxCell>
        <mxCell id="0gY_LsnsYeZO3KPKOBL2-20" value="34658328" style="rounded=1;whiteSpace=wrap;html=1;fillColor=#f8cecc;strokeColor=#b85450;" vertex="1" parent="1">
          <mxGeometry x="80" y="320" width="110" height="40" as="geometry" />
        </mxCell>
        <mxCell id="0gY_LsnsYeZO3KPKOBL2-21" value="Ciphertext" style="text;html=1;align=center;verticalAlign=middle;whiteSpace=wrap;rounded=0;" vertex="1" parent="1">
          <mxGeometry x="97.5" y="360" width="75" height="30" as="geometry" />
        </mxCell>
      </root>
    </mxGraphModel>
  </diagram>
</mxfile>
